<svg xmlns="http://www.w3.org/2000/svg" width="16" height="16" viewBox="0 0 16 16">
  <metadata><?xpacket begin="﻿" id="W5M0MpCehiHzreSzNTczkc9d"?>
<x:xmpmeta xmlns:x="adobe:ns:meta/" x:xmptk="Adobe XMP Core 5.6-c138 79.159824, 2016/09/14-01:09:01        ">
   <rdf:RDF xmlns:rdf="http://www.w3.org/1999/02/22-rdf-syntax-ns#">
      <rdf:Description rdf:about=""/>
   </rdf:RDF>
</x:xmpmeta>
                                                                                                    
                                                                                                    
                                                                                                    
                                                                                                    
                                                                                                    
                                                                                                    
                                                                                                    
                                                                                                    
                                                                                                    
                                                                                                    
                                                                                                    
                                                                                                    
                                                                                                    
                                                                                                    
                                                                                                    
                                                                                                    
                                                                                                    
                                                                                                    
                                                                                                    
                                                                                                    
                           
<?xpacket end="w"?></metadata>
<defs>
    <style>
      .cls-1 {
        fill: #0d7aa6;
        fill-rule: evenodd;
      }
    </style>
  </defs>
  <path id="Forma_1" data-name="Forma 1" class="cls-1" d="M614,471H600a1,1,0,0,1-1-1V457a1,1,0,0,1,1-1h3v-1h1v1h6v-1h1v1h3a1,1,0,0,1,1,1v13A1,1,0,0,1,614,471Zm0-14h-3v1h-1v-1h-6v1h-1v-1h-3v13h14V457Zm-10,8h-2v-2h2v2Zm0,3h-2v-2h2v2Zm4-6h-2v-2h2v2Zm0,3h-2v-2h2v2Zm0,3h-2v-2h2v2Zm4-6h-2v-2h2v2Zm0,3h-2v-2h2v2Z" transform="translate(-599 -455)"/>
</svg>
