<svg xmlns="http://www.w3.org/2000/svg" width="58.312" height="58.313" viewBox="0 0 58.312 58.313">
  <defs>
    <style>
      .cls-1 {
        fill: #63b1d1;
        fill-rule: evenodd;
      }
    </style>
  </defs>
  <path id="classical" class="cls-1" d="M979.033,709.441c-4.782,0-9.191-3.521-12.75-10.181a17.5,17.5,0,0,0-32.942,8.237v20.415a0.972,0.972,0,0,0,.972.972h4.861v8.75a0.972,0.972,0,0,0,.972.972h3.889a0.972,0.972,0,0,0,.972-0.972v-8.75h1.944v8.75a0.973,0.973,0,0,0,.973.972h3.888a0.972,0.972,0,0,0,.972-0.972v-8.75h1.945v8.75a0.972,0.972,0,0,0,.972.972h3.889a0.972,0.972,0,0,0,.972-0.972v-8.75h3.888v17.5h-5.833v-4.86a0.972,0.972,0,1,0-1.944,0v4.86H950.84v-4.86a0.972,0.972,0,1,0-1.944,0v4.86h-5.833v-4.86a0.972,0.972,0,1,0-1.944,0v4.86h-5.833V731.8a0.973,0.973,0,0,0-1.945,0v15.555a0.972,0.972,0,0,0,.972.972H990.7a0.972,0.972,0,0,0,.972-0.972V722.079A12.652,12.652,0,0,0,979.033,709.441Zm-35.97,27.22h-1.944v-7.777h1.944v7.777h0Zm7.777,0H948.9v-7.777h1.944v7.777Zm7.778,0h-1.945v-7.777h1.945v7.777Zm31.109,9.722h-7.778v-4.86a0.972,0.972,0,1,0-1.944,0v4.86h-5.833v-4.86a0.972,0.972,0,1,0-1.944,0v4.86H966.4v-17.5h3.889v8.75a0.972,0.972,0,0,0,.972.972h3.888a0.972,0.972,0,0,0,.972-0.972v-8.75h1.945v8.75a0.972,0.972,0,0,0,.972.972h3.889a0.972,0.972,0,0,0,.972-0.972v-8.75h2.916a0.972,0.972,0,0,0,0-1.944H935.285V707.5a15.557,15.557,0,0,1,29.283-7.321c4.951,9.265,10.6,11.209,14.465,11.209a10.707,10.707,0,0,1,10.694,10.694v24.3h0Zm-17.5-9.722v-7.777h1.944v7.777h-1.944Zm7.777,0v-7.777h1.945v7.777h-1.945Z" transform="translate(-933.344 -690)"/>
</svg>
