<svg xmlns="http://www.w3.org/2000/svg" width="54.16" height="54.156" viewBox="0 0 54.16 54.156">
  <defs>
    <style>
      .cls-1 {
        fill: #63b1d1;
        fill-rule: evenodd;
      }
    </style>
  </defs>
  <path id="concert" class="cls-1" d="M1312.13,702.867a13.821,13.821,0,0,0-18.85-.628,3.336,3.336,0,0,0-3.9,5.317l0.11,0.106a13.813,13.813,0,0,0-.71,7.422L1262.27,744.9a1.068,1.068,0,0,0,.05,1.476l6.3,6.307a1.08,1.08,0,0,0,1.48.044l29.82-26.506a13.774,13.774,0,0,0,2.43.217,13.923,13.923,0,0,0,4.99-.921l0.1,0.1a3.34,3.34,0,0,0,5.7-2.359,3.271,3.271,0,0,0-.38-1.542A13.825,13.825,0,0,0,1312.13,702.867Zm-42.7,47.577-4.87-4.871,1.52-1.717,5.06,5.063Zm3.33-2.957-5.25-5.242,22.47-25.278,8.05,8.049Zm27.37-23.415-9.2-9.2a11.8,11.8,0,0,1,.25-5.509l14.46,14.46A11.775,11.775,0,0,1,1300.13,724.072Zm10.51,0.027a1.178,1.178,0,0,1-1.67,0l-18.07-18.066a1.187,1.187,0,0,1,0-1.673,1.181,1.181,0,0,1,1.67,0l18.07,18.066A1.175,1.175,0,0,1,1310.64,724.1Zm0.7-4.02-16.42-16.415A11.66,11.66,0,0,1,1311.34,720.079Z" transform="translate(-1262.03 -698.844)"/>
</svg>
