<svg xmlns="http://www.w3.org/2000/svg" width="33" height="33" viewBox="0 0 33 33">
  <defs>
    <style>
      .cls-1 {
        fill: #d0d0d0;
        fill-rule: evenodd;
      }
    </style>
  </defs>
  <path id="_3_copy_4" data-name="3 copy 4" class="cls-1" d="M849.5,4067a16.5,16.5,0,1,1,16.5-16.5A16.5,16.5,0,0,1,849.5,4067Zm0-31a14.5,14.5,0,1,0,14.5,14.5A14.5,14.5,0,0,0,849.5,4036Zm6.5,22.75H843.6a1.918,1.918,0,0,1-1.9-1.93v-12.64a1.918,1.918,0,0,1,1.9-1.93H856a1.918,1.918,0,0,1,1.9,1.93v12.64A1.918,1.918,0,0,1,856,4058.75Zm-6.2-11.44a3.191,3.191,0,1,0,3.132,3.19A3.163,3.163,0,0,0,849.8,4047.31Zm0,8.57a5.41,5.41,0,0,1-5.313-5.51,5.193,5.193,0,0,1,.006-1.29h-1.117v7.96h12.848v-7.96l-1.275-.07a5.7,5.7,0,0,1,.164,1.36A5.41,5.41,0,0,1,849.8,4055.88Zm6.427-11.47a0.457,0.457,0,0,0-.448-0.46h-1.342a0.456,0.456,0,0,0-.447.46v1.37a0.456,0.456,0,0,0,.447.46h1.342a0.457,0.457,0,0,0,.448-0.46v-1.37Z" transform="translate(-833 -4034)"/>
</svg>
