<svg xmlns="http://www.w3.org/2000/svg" width="55.312" height="80.09" viewBox="0 0 55.312 80.09">
  <defs>
    <style>
      .cls-1 {
        fill: #d0d0d0;
        fill-rule: evenodd;
      }
    </style>
  </defs>
  <path class="cls-1" d="M824.641,3811.29a3.818,3.818,0,0,1-2.725,1.13h-0.569a1.25,1.25,0,1,1,0-2.5h0.569a1.328,1.328,0,0,0,.956-0.4,1.35,1.35,0,0,0,.4-0.95v-47.62H807.361a1.237,1.237,0,0,1-.889-0.37,1.262,1.262,0,0,1-.362-0.89c0.055-5.14.108-13.05,0.061-15.9h-31.83a1.378,1.378,0,0,0-1.372,1.38v63.19a1.564,1.564,0,0,0,1.556,1.56h16.441a1.25,1.25,0,1,1,0,2.5H774.525a4.063,4.063,0,0,1-4.056-4.06v-63.19a3.88,3.88,0,0,1,3.872-3.88h32.6c0.352-.21.659-0.14,1.435,0.54l0.01-.01s0,0,0,.01l0.026,0.03c0.552,0.49,1.338,1.27,2.529,2.46,1.611,1.61,3.756,3.76,5.9,5.9,4.286,4.3,8.567,8.6,8.567,8.6a1.152,1.152,0,0,1,.242.36c0.016,0.03.024,0.07,0.037,0.1a1.318,1.318,0,0,1,.07.35,0.572,0.572,0,0,1,.014.07v48.87A3.886,3.886,0,0,1,824.641,3811.29Zm-15.948-65.68c0.019,2.35,0,6.26-.069,12.84h12.887C816.98,3753.9,811.617,3748.53,808.693,3745.61Zm-11.645,57.33a12.493,12.493,0,1,1,18.889-.35,1.222,1.222,0,0,1,.221.42l4.2,14.39a1.238,1.238,0,0,1-.387,1.3,1.271,1.271,0,0,1-1.345.19l-4.25-2-2.679,3.85a1.255,1.255,0,0,1-1.027.54,1.577,1.577,0,0,1-.215-0.02,1.259,1.259,0,0,1-.992-0.91l-2.868-10.7-2.869,10.7a1.248,1.248,0,0,1-1,.91,1.52,1.52,0,0,1-.212.02,1.253,1.253,0,0,1-1.029-.54l-2.673-3.88-4.252,2.02a1.246,1.246,0,0,1-1.736-1.48Zm14.131,14.16,1.746-2.51a1.252,1.252,0,0,1,1.559-.42l2.7,1.27-3.2-10.97a12.4,12.4,0,0,1-5.533,2.43Zm5.273-22.51a10.12,10.12,0,1,0-10.119,10.12A10.129,10.129,0,0,0,816.452,3794.59Zm-17.747,19.56a1.237,1.237,0,0,1,1.565.42l1.741,2.52,2.711-10.11a12.486,12.486,0,0,1-5.608-2.19l-3.105,10.64Zm7.628-25.8a6.245,6.245,0,1,1-6.251,6.24A6.242,6.242,0,0,1,806.333,3788.35Zm0,9.99a3.745,3.745,0,1,0-3.75-3.75A3.753,3.753,0,0,0,806.333,3798.34Z" transform="translate(-770.469 -3741.19)"/>
</svg>
