<svg xmlns="http://www.w3.org/2000/svg" width="16" height="13" viewBox="0 0 16 13">
  <defs>
    <style>
      .cls-1 {
        fill: #fff;
        fill-rule: evenodd;
      }
    </style>
  </defs>
  <path class="cls-1" d="M1222.08,75h-12.17a2.1,2.1,0,0,1-1.91-2.241V64.241A2.1,2.1,0,0,1,1209.91,62h12.17a2.1,2.1,0,0,1,1.92,2.242v8.517A2.1,2.1,0,0,1,1222.08,75ZM1222,63h-12a1.11,1.11,0,0,0-.26.035l6.26,6.259,6.26-6.26A1.206,1.206,0,0,0,1222,63Zm1,1a1.438,1.438,0,0,0-.03-0.26l-6.62,6.614L1216,70l-0.35.354-6.61-6.6A2.38,2.38,0,0,0,1209,64v9a1.129,1.129,0,0,0,1,1h12a1.129,1.129,0,0,0,1-1V64Z" transform="translate(-1208 -62)"/>
</svg>
