<svg xmlns="http://www.w3.org/2000/svg" width="12" height="20" viewBox="0 0 12 20">
  <defs>
    <style>
      .cls-1 {
        fill: #fff;
        fill-rule: evenodd;
      }
    </style>
  </defs>
  <path class="cls-1" d="M1219.61,47h-7.22c-1.32,0-2.39-.657-2.39-2V29c0-1.345,1.07-2,2.39-2h7.22c1.32,0,2.39.656,2.39,2V45C1222,46.344,1220.93,47,1219.61,47ZM1221,29a1,1,0,0,0-1-1h-8a1,1,0,0,0-1,1v1h0v7h0v4h10V29Zm0,13h-10v3a1,1,0,0,0,1,1h8a1,1,0,0,0,1-1V42Zm-5,3a1,1,0,1,1,1-1A1,1,0,0,1,1216,45Zm-0.5-16h1a0.5,0.5,0,0,1,0,1h-1A0.5,0.5,0,0,1,1215.5,29Z" transform="translate(-1210 -27)"/>
</svg>
