<svg xmlns="http://www.w3.org/2000/svg" width="36" height="25" viewBox="0 0 36 25">
  <metadata><?xpacket begin="﻿" id="W5M0MpCehiHzreSzNTczkc9d"?>
<x:xmpmeta xmlns:x="adobe:ns:meta/" x:xmptk="Adobe XMP Core 5.6-c138 79.159824, 2016/09/14-01:09:01        ">
   <rdf:RDF xmlns:rdf="http://www.w3.org/1999/02/22-rdf-syntax-ns#">
      <rdf:Description rdf:about=""/>
   </rdf:RDF>
</x:xmpmeta>
                                                                                                    
                                                                                                    
                                                                                                    
                                                                                                    
                                                                                                    
                                                                                                    
                                                                                                    
                                                                                                    
                                                                                                    
                                                                                                    
                                                                                                    
                                                                                                    
                                                                                                    
                                                                                                    
                                                                                                    
                                                                                                    
                                                                                                    
                                                                                                    
                                                                                                    
                                                                                                    
                           
<?xpacket end="w"?></metadata>
<defs>
    <style>
      .cls-1 {
        fill: #2898c6;
        fill-rule: evenodd;
      }
    </style>
  </defs>
  <path id="Shape_6_copy_2" data-name="Shape 6 copy 2" class="cls-1" d="M1595,64.427V84.755a2.162,2.162,0,0,1-1.47,2.1h-0.05c-0.09.048-.23,0.048-0.37,0.1h-0.1a1.583,1.583,0,0,1-.47.047h-31.09a2.751,2.751,0,0,1-1.55-.467,2.237,2.237,0,0,1-.9-1.54V64.012a2.23,2.23,0,0,1,.57-1.263c0.04-.043.09-0.091,0.14-0.139,0.09-.047.19-0.138,0.28-0.186l0.05-.048c0.1-.043.24-0.091,0.33-0.138,0.05,0,.05-0.048.1-0.048,0.09-.048.24-0.048,0.38-0.1a0.16,0.16,0,0,1,.14-0.048,2.268,2.268,0,0,1,.56-0.048h30.84c0.19,0,.38.048,0.52,0.048h0.1a1.34,1.34,0,0,1,.42.1c0.05,0,.05.048,0.1,0.048,0.1,0.043.24,0.091,0.33,0.138,0.05,0,.05.048,0.1,0.048,0.1,0.1.19,0.139,0.28,0.234a0.048,0.048,0,0,0,.05.048l0.05,0.048a2.286,2.286,0,0,1,.66,1.54v0.182ZM1563,85h28a3.638,3.638,0,0,0,.4-0.029l-9.79-8.163-3.9,3.9L1577,80l-0.71.707-3.9-3.9-9.8,8.166C1562.83,85,1563,85,1563,85Zm-2-19.586V83.7l9.97-8.311ZM1591,64h-28a5.448,5.448,0,0,0-.55.032L1577,78.586l14.55-14.546A3.912,3.912,0,0,0,1591,64Zm-7.97,11.387L1593,83.7V65.414Z" transform="translate(-1559 -62)"/>
</svg>
