<svg xmlns="http://www.w3.org/2000/svg" width="12" height="16" viewBox="0 0 12 16">
  <defs>
    <style>
      .cls-1 {
        fill: #63b1d1;
        fill-rule: evenodd;
      }
    </style>
  </defs>
  <path class="cls-1" d="M178.648,486.264a4.074,4.074,0,0,0-3.02-1.543h-3.995l-0.966-6.15a0.681,0.681,0,0,0-.673-0.571H167.7a0.692,0.692,0,0,0-.7.717l0.764,9.2v5.41a0.693,0.693,0,0,0,1.385,0V488.6h7.367v4.727a0.665,0.665,0,1,0,1.329,0v-4.8a1.44,1.44,0,0,0,1.01-.688A1.489,1.489,0,0,0,178.648,486.264Zm-1.239.97h-7.29l1.21-1.2h4.3a2.748,2.748,0,0,1,1.9.984S177.7,487.234,177.409,487.234Zm-8-7.923,0.913,5.817-1.283,1.255-0.6-7.072h0.972Z" transform="translate(-167 -478)"/>
</svg>
