<svg xmlns="http://www.w3.org/2000/svg" width="61.937" height="66.843" viewBox="0 0 61.937 66.843">
  <defs>
    <style>
      .cls-1 {
        fill: #63b1d1;
        fill-rule: evenodd;
      }
    </style>
  </defs>
  <path id="Forma_1" data-name="Forma 1" class="cls-1" d="M307.6,684.077a1.006,1.006,0,0,0-1.373.369L281.082,729.2a1,1,0,0,0,.367,1.373l34.808,20.1a1.007,1.007,0,0,0,1.373-.368l25.145-44.75a1.006,1.006,0,0,0-.368-1.373l-34.807-20.1h0Zm-0.135,2.244,8.7,5.024-1.508,2.612a1,1,0,0,0,.368,1.372l13.923,8.039a1,1,0,0,0,1.372-.369l1.508-2.611,8.7,5.024-10.064,18.627-8.751-5.052A9.041,9.041,0,0,0,306.153,710l-8.752-5.053Zm10.442,6.029,12.183,7.033-1,1.741L316.9,694.091Zm-0.957,16.921a7.016,7.016,0,0,1,3.014,8.7l-12.058-6.961A7.016,7.016,0,0,1,316.95,709.271ZM296.4,706.689l8.752,5.053a9.041,9.041,0,0,0,15.564,8.986l8.751,5.052-13.071,22.64-8.7-5.024,1.508-2.611a1,1,0,0,0-.368-1.373l-13.923-8.038a1,1,0,0,0-1.373.368l-1.507,2.611-8.7-5.024,13.071-22.64h0Zm10.5,6.065,12.057,6.962A7.033,7.033,0,0,1,306.9,712.754Zm-12.129,20.863,12.183,7.034-1,1.741-12.183-7.034Z" transform="translate(-280.969 -683.938)"/>
</svg>
