<svg xmlns="http://www.w3.org/2000/svg" width="66.594" height="79.97" viewBox="0 0 66.594 79.97">
  <defs>
    <style>
      .cls-1 {
        fill: #d0d0d0;
        fill-rule: evenodd;
      }
    </style>
  </defs>
  <path class="cls-1" d="M478.853,3816.2a1.144,1.144,0,0,1-.582.26,1.4,1.4,0,0,1-.2.02,1.258,1.258,0,0,1-.788-0.28,84.073,84.073,0,0,1-32.512-66.14v-8.94a1.257,1.257,0,0,1,1.059-1.24l11.649-1.79a134.76,134.76,0,0,1,41.183,0l11.65,1.79a1.257,1.257,0,0,1,1.059,1.24v8.94A84.056,84.056,0,0,1,478.853,3816.2Zm30.017-74.01-10.591-1.63a132.327,132.327,0,0,0-40.421,0l-10.59,1.63v7.87a81.554,81.554,0,0,0,30.8,63.58,81.554,81.554,0,0,0,30.8-63.58v-7.87Zm-27.761,58.95a1.264,1.264,0,0,1-.9.38,1.245,1.245,0,0,1-.9-2.11c20.213-21.15,18.9-47.94,18.886-48.2a1.249,1.249,0,0,1,1.174-1.32,1.263,1.263,0,0,1,1.32,1.17C500.7,3751.34,502.1,3779.18,481.109,3801.14Z" transform="translate(-444.781 -3736.5)"/>
</svg>
