<svg xmlns="http://www.w3.org/2000/svg" width="33" height="33" viewBox="0 0 33 33">
  <metadata><?xpacket begin="﻿" id="W5M0MpCehiHzreSzNTczkc9d"?>
<x:xmpmeta xmlns:x="adobe:ns:meta/" x:xmptk="Adobe XMP Core 5.6-c138 79.159824, 2016/09/14-01:09:01        ">
   <rdf:RDF xmlns:rdf="http://www.w3.org/1999/02/22-rdf-syntax-ns#">
      <rdf:Description rdf:about=""/>
   </rdf:RDF>
</x:xmpmeta>
                                                                                                    
                                                                                                    
                                                                                                    
                                                                                                    
                                                                                                    
                                                                                                    
                                                                                                    
                                                                                                    
                                                                                                    
                                                                                                    
                                                                                                    
                                                                                                    
                                                                                                    
                                                                                                    
                                                                                                    
                                                                                                    
                                                                                                    
                                                                                                    
                                                                                                    
                                                                                                    
                           
<?xpacket end="w"?></metadata>
<defs>
    <style>
      .cls-1 {
        fill: #3aabef;
        fill-rule: evenodd;
      }
    </style>
  </defs>
  <path id="_3_copy_5" data-name="3 copy 5" class="cls-1" d="M405.5,947A16.5,16.5,0,1,1,422,930.5,16.5,16.5,0,0,1,405.5,947Zm0-31A14.5,14.5,0,1,0,420,930.5,14.5,14.5,0,0,0,405.5,916Zm6.952,11.981c0.007,0.13.009,0.26,0.009,0.392a8.625,8.625,0,0,1-8.739,8.637,8.767,8.767,0,0,1-4.709-1.365,6.573,6.573,0,0,0,.733.042,6.2,6.2,0,0,0,3.815-1.3,3.071,3.071,0,0,1-2.868-2.108,3.108,3.108,0,0,0,1.387-.051,3.046,3.046,0,0,1-2.464-2.976v-0.037a3.106,3.106,0,0,0,1.392.38,3.016,3.016,0,0,1-.952-4.052,8.752,8.752,0,0,0,6.331,3.173,2.911,2.911,0,0,1-.08-0.691,3.055,3.055,0,0,1,3.071-3.036,3.089,3.089,0,0,1,2.243.958,6.172,6.172,0,0,0,1.95-.737,3.042,3.042,0,0,1-1.349,1.68,6.2,6.2,0,0,0,1.757-.474A6.205,6.205,0,0,1,412.452,927.981Zm1.532-1.572,0,0-0.008,0A0.042,0.042,0,0,0,413.984,926.409Z" transform="translate(-389 -914)"/>
</svg>
