<svg class="svg-anim" xmlns="http://www.w3.org/2000/svg" width="110" height="115" viewBox="0 0 110 115"><circle fill="none" stroke="#AEAEAE" stroke-width="1.5" cx="61.094" cy="52.526" r="6.215"/><path fill="none" stroke="#AEAEAE" stroke-width="1.5" d="M54.902 52.973a6.026 6.026 0 0 0 6.535-6.647m6.063 6.252a6.024 6.024 0 0 0-7.362 5.711"/><path fill="none" stroke="#AEAEAE" stroke-width="1.5" stroke-linecap="round" stroke-linejoin="round" d="M28.728 54.006c.16-.938 2.634-.845 2.634-.845s11.124-10.698 13.427-13.374c2.301-2.675 7.032-8.664 12.02-14.396 4.987-5.733 18.794-19.618 18.794-19.618s1.535-1.655 3.318.134l2.476 2.444c1.787 1.787.128 3.319.128 3.319s-13.91 13.781-19.651 18.757c-5.742 4.977-11.739 9.699-14.418 11.996-2.681 2.297-13.399 13.399-13.399 13.399s.062 2.394-.849 2.633c-.913.24-4.641-3.511-4.48-4.449zm19.434-18.287l3.168 3.497"/></svg>