<svg xmlns="http://www.w3.org/2000/svg" width="55.312" height="80.09" viewBox="0 0 55.312 80.09"><defs><style>.cls-1{fill:#d0d0d0;fill-rule:evenodd}</style></defs><path class="cls-1" d="M54.172 70.1a3.818 3.818 0 0 1-2.725 1.13h-.569a1.25 1.25 0 1 1 0-2.5h.569a1.328 1.328 0 0 0 .956-.4 1.35 1.35 0 0 0 .4-.95V19.76H36.892a1.237 1.237 0 0 1-.889-.37 1.262 1.262 0 0 1-.362-.89c.055-5.14.108-13.05.061-15.9H3.872A1.378 1.378 0 0 0 2.5 3.98v63.19a1.564 1.564 0 0 0 1.556 1.56h16.441a1.25 1.25 0 1 1 0 2.5H4.056A4.063 4.063 0 0 1 0 67.17V3.98A3.88 3.88 0 0 1 3.872.1h32.6c.352-.21.659-.14 1.435.54l.01-.01v.01l.026.03c.552.49 1.338 1.27 2.529 2.46 1.611 1.61 3.756 3.76 5.9 5.9 4.286 4.3 8.567 8.6 8.567 8.6a1.152 1.152 0 0 1 .242.36c.016.03.024.07.037.1a1.318 1.318 0 0 1 .07.35.572.572 0 0 1 .014.07v48.87a3.886 3.886 0 0 1-1.13 2.72zM38.224 4.42c.019 2.35 0 6.26-.069 12.84h12.887A7603.73 7603.73 0 0 0 38.224 4.42zM26.579 61.75a12.493 12.493 0 1 1 18.889-.35 1.222 1.222 0 0 1 .221.42l4.2 14.39a1.238 1.238 0 0 1-.387 1.3 1.271 1.271 0 0 1-1.345.19l-4.25-2-2.679 3.85a1.255 1.255 0 0 1-1.027.54 1.577 1.577 0 0 1-.215-.02 1.259 1.259 0 0 1-.992-.91l-2.868-10.7-2.869 10.7a1.248 1.248 0 0 1-1 .91 1.52 1.52 0 0 1-.212.02 1.253 1.253 0 0 1-1.029-.54l-2.673-3.88-4.252 2.02a1.246 1.246 0 0 1-1.736-1.48zM40.71 75.91l1.746-2.51a1.252 1.252 0 0 1 1.559-.42l2.7 1.27-3.2-10.97a12.4 12.4 0 0 1-5.533 2.43zm5.273-22.51a10.12 10.12 0 1 0-10.119 10.12A10.129 10.129 0 0 0 45.983 53.4zM28.236 72.96a1.237 1.237 0 0 1 1.565.42l1.741 2.52 2.711-10.11a12.486 12.486 0 0 1-5.608-2.19L25.54 74.24zm7.628-25.8a6.245 6.245 0 1 1-6.251 6.24 6.242 6.242 0 0 1 6.251-6.24zm0 9.99a3.745 3.745 0 1 0-3.75-3.75 3.753 3.753 0 0 0 3.75 3.75z"/></svg>