<svg xmlns="http://www.w3.org/2000/svg" width="80" height="80" viewBox="0 0 80 80"><defs><style>.cls-1{fill:#d0d0d0;fill-rule:evenodd}</style></defs><path class="cls-1" d="M48.47 45.86a10.56 10.56 0 0 0 1.1-9.57l5.36-16.53a1.251 1.251 0 0 0-2-1.34L39.84 29.55a10.158 10.158 0 0 0-8.33 4.58 10.583 10.583 0 0 0-1.11 9.58l-5.35 16.53a1.252 1.252 0 0 0 .49 1.42 1.3 1.3 0 0 0 .7.21 1.232 1.232 0 0 0 .81-.3l13.08-11.13a10.15 10.15 0 0 0 8.34-4.58zm-8.75 2.08a1.193 1.193 0 0 0-.85.29l-10.08 8.58 4.13-12.76a1.27 1.27 0 0 0-.04-.88 8.077 8.077 0 0 1 .71-7.65 7.669 7.669 0 0 1 6.4-3.47c.09 0 .18.01.27.01a1.2 1.2 0 0 0 .85-.3l10.08-8.58-4.13 12.77a1.243 1.243 0 0 0 .03.87 8.065 8.065 0 0 1-.7 7.66 7.708 7.708 0 0 1-6.67 3.46zm23.1 2.31a1.161 1.161 0 0 0-1.6.4c-6.24 10.41-14.09 11.93-14.2 11.95a1.164 1.164 0 0 0-.95 1.34 1.177 1.177 0 0 0 1.15.98 1.355 1.355 0 0 0 .2-.02c.36-.06 8.97-1.64 15.8-13.05a1.15 1.15 0 0 0-.4-1.6zM39.99 0a40 40 0 1 0 40 40 40 40 0 0 0-40-40zm0 77.5A37.5 37.5 0 1 1 77.49 40a37.539 37.539 0 0 1-37.5 37.5zm0-71.25A33.75 33.75 0 1 0 73.74 40 33.75 33.75 0 0 0 39.99 6.25zm0 65A31.25 31.25 0 1 1 71.24 40a31.287 31.287 0 0 1-31.25 31.25z"/></svg>