<svg xmlns="http://www.w3.org/2000/svg" width="36" height="25" viewBox="0 0 36 25"><defs><style>.cls-1{fill:#2898c6;fill-rule:evenodd}</style></defs><path id="Shape_6_copy_2" data-name="Shape 6 copy 2" class="cls-1" d="M1595 64.427v20.328a2.162 2.162 0 0 1-1.47 2.1h-.05c-.09.048-.23.048-.37.1h-.1a1.583 1.583 0 0 1-.47.047h-31.09a2.751 2.751 0 0 1-1.55-.467 2.237 2.237 0 0 1-.9-1.54V64.012a2.23 2.23 0 0 1 .57-1.263c.04-.043.09-.091.14-.139.09-.047.19-.138.28-.186l.05-.048c.1-.043.24-.091.33-.138.05 0 .05-.048.1-.048.09-.048.24-.048.38-.1a.16.16 0 0 1 .14-.048 2.268 2.268 0 0 1 .56-.048h30.84c.19 0 .38.048.52.048h.1a1.34 1.34 0 0 1 .42.1c.05 0 .05.048.1.048.1.043.24.091.33.138.05 0 .05.048.1.048.1.1.19.139.28.234a.048.048 0 0 0 .05.048l.05.048a2.286 2.286 0 0 1 .66 1.54v.182zM1563 85h28a3.638 3.638 0 0 0 .4-.029l-9.79-8.163-3.9 3.9L1577 80l-.71.707-3.9-3.9-9.8 8.166c.24.027.41.027.41.027zm-2-19.586V83.7l9.97-8.311zM1591 64h-28a5.448 5.448 0 0 0-.55.032L1577 78.586l14.55-14.546a3.912 3.912 0 0 0-.55-.04zm-7.97 11.387L1593 83.7V65.414z" transform="translate(-1559 -62)"/></svg>