<svg xmlns="http://www.w3.org/2000/svg" width="58.157" height="53.406" viewBox="0 0 58.157 53.406"><defs><style>.cls-1{fill:#63b1d1;fill-rule:evenodd}</style></defs><path class="cls-1" d="M57.13 0H1.018A1.027 1.027 0 0 0-.01 1.027v51.341a1.027 1.027 0 0 0 1.028 1.027H57.13a1.027 1.027 0 0 0 1.027-1.027V1.027A1.027 1.027 0 0 0 57.13 0zM2.044 2.054h54.057V8.7a8.426 8.426 0 0 1-9.17 0V3.763a1.028 1.028 0 0 0-2.055 0V8.7a8.428 8.428 0 0 1-9.167 0V5.41a1.028 1.028 0 0 0-2.055 0V8.7a8.427 8.427 0 0 1-9.166 0V5.41a1.028 1.028 0 0 0-2.056 0V8.7a8.428 8.428 0 0 1-9.167 0V3.763a1.028 1.028 0 0 0-2.055 0V8.7a8.431 8.431 0 0 1-9.166 0V2.051zm51.231 31.334c-2.261-4.809-3.636-12.786-3.713-21.455a10.473 10.473 0 0 0 6.539-.876v26.3c-4-.383-7.751-3-10.658-7.469a34.278 34.278 0 0 1-5.02-17.771 10.482 10.482 0 0 0 5.482-1.627 10.591 10.591 0 0 0 1.6.828c.015 9.194 1.474 17.763 3.91 22.946a1.029 1.029 0 0 0 .931.591 1.018 1.018 0 0 0 .437-.1 1.028 1.028 0 0 0 .493-1.367zM2.044 11.058a10.47 10.47 0 0 0 6.539.874c-.076 8.67-1.452 16.647-3.712 21.456a1.028 1.028 0 1 0 1.86.874c2.436-5.183 3.895-13.753 3.911-22.947a10.618 10.618 0 0 0 1.6-.828 10.482 10.482 0 0 0 5.483 1.627 34.291 34.291 0 0 1-5.019 17.772c-2.908 4.468-6.66 7.086-10.658 7.469v-26.3zm4.383 40.283a36.263 36.263 0 0 0-.982-7.932 1.028 1.028 0 0 0-1.993.5 34.664 34.664 0 0 1 .919 7.429H2.044V39.566a7.455 7.455 0 0 1 4.525 3.508 16.774 16.774 0 0 1 2.465 8.267H6.427zm35.526 0h-25.76v-2.166h25.761v2.166zm2.056 0v-3.193a1.028 1.028 0 0 0-1.028-1.028H15.166a1.028 1.028 0 0 0-1.028 1.028v3.193H11.09a18.893 18.893 0 0 0-2.8-9.388 11.173 11.173 0 0 0-3.046-3.2c3.468-1.186 6.636-3.835 9.18-7.743a36.437 36.437 0 0 0 5.356-19.072 10.486 10.486 0 0 0 3.678-1.448 10.469 10.469 0 0 0 11.223 0 10.51 10.51 0 0 0 3.681 1.449 36.436 36.436 0 0 0 5.356 19.071c2.544 3.908 5.712 6.557 9.181 7.743a11.163 11.163 0 0 0-3.047 3.2 18.907 18.907 0 0 0-2.8 9.388h-3.048zm12.092 0h-2.327a34.664 34.664 0 0 1 .919-7.429 1.028 1.028 0 0 0-1.993-.5 36.263 36.263 0 0 0-.982 7.932h-2.607a16.788 16.788 0 0 1 2.465-8.267 7.463 7.463 0 0 1 4.525-3.508v11.775z"/></svg>